<?xml version="1.0" encoding="utf-8"?>
<!-- Generator: Adobe Illustrator 19.2.1, SVG Export Plug-In . SVG Version: 6.00 Build 0)  -->
<!DOCTYPE svg PUBLIC "-//W3C//DTD SVG 1.1//EN" "http://www.w3.org/Graphics/SVG/1.1/DTD/svg11.dtd">
<svg version="1.1" id="Capa_1" xmlns="http://www.w3.org/2000/svg" xmlns:xlink="http://www.w3.org/1999/xlink" x="0px" y="0px"
	 viewBox="0 0 97.8 97.8" style="enable-background:new 0 0 97.8 97.8;" xml:space="preserve">
<g>
	<g>
		<rect x="51.7" y="43.3" width="4.2" height="12.5"/>
		<rect x="72.5" y="43.3" width="4.2" height="12.5"/>
		<path d="M48.9,0C21.9,0,0,21.9,0,48.9s21.9,48.9,48.9,48.9s48.9-21.9,48.9-48.9S75.9,0,48.9,0z M32.2,61.4h-18V37.8h11.1v-9.7h6.9
			V61.4z M41.9,61.4H35V37.8h6.9V61.4z M41.9,35H35v-6.9h6.9V35z M62.7,69.7h-18v-5.5h11.1v-2.8H44.7V37.8h18V69.7z M65.5,69.7v-5.5
			h11.1v-2.8H65.5V37.8h18v31.9H65.5L65.5,69.7z"/>
		<rect x="21.1" y="43.3" width="4.2" height="12.5"/>
	</g>
</g>
</svg>
