<?xml version="1.0" encoding="utf-8"?>
<!-- Generator: Adobe Illustrator 19.2.1, SVG Export Plug-In . SVG Version: 6.00 Build 0)  -->
<!DOCTYPE svg PUBLIC "-//W3C//DTD SVG 1.1//EN" "http://www.w3.org/Graphics/SVG/1.1/DTD/svg11.dtd">
<svg version="1.1" id="Capa_1" xmlns="http://www.w3.org/2000/svg" xmlns:xlink="http://www.w3.org/1999/xlink" x="0px" y="0px"
	 viewBox="0 0 508.5 508.5" style="enable-background:new 0 0 508.5 508.5;" xml:space="preserve">
<g>
	<g>
		<g>
			<path d="M254.3,0C113.8,0,0,113.8,0,254.3s113.8,254.3,254.3,254.3s254.3-113.8,254.3-254.3C508.5,113.8,394.7,0,254.3,0z
				 M160.7,318c-35.6,0-64.5-28.9-64.5-64.5s28.9-64.5,64.5-64.5s64.5,28.9,64.5,64.5S196.3,318,160.7,318z M348.5,318
				c-35.6,0-64.5-28.9-64.5-64.5s28.9-64.5,64.5-64.5s64.5,28.9,64.5,64.5S384.1,318,348.5,318z"/>
		</g>
	</g>
</g>
</svg>
