<?xml version="1.0" encoding="utf-8"?>
<!-- Generator: Adobe Illustrator 19.2.1, SVG Export Plug-In . SVG Version: 6.00 Build 0)  -->
<!DOCTYPE svg PUBLIC "-//W3C//DTD SVG 1.1//EN" "http://www.w3.org/Graphics/SVG/1.1/DTD/svg11.dtd">
<svg version="1.1" id="Capa_1" xmlns="http://www.w3.org/2000/svg" xmlns:xlink="http://www.w3.org/1999/xlink" x="0px" y="0px"
	 viewBox="0 0 97.8 97.8" style="enable-background:new 0 0 97.8 97.8;" xml:space="preserve">
<g>
	<path d="M48.9,0C21.9,0,0,21.9,0,48.9s21.9,48.9,48.9,48.9s48.9-21.9,48.9-48.9S75.9,0,48.9,0z M79.7,56.7c-1,0.2-2,0.5-3,0.6
		c-1.7,0.3-3.4,0.5-5.2,0.5c-0.8,0-1.1,0.3-1.4,0.9c-4.2,8.2-9.7,15.4-16.6,21.6c-0.6,0.6-1.3,1.1-2,1.6c-2.5,1.7-5,1.8-7.6,0.2
		c-2.2-1.4-4.1-3.2-5.9-5.1c-5.4-6-9.1-12.9-12-20.3c-4-10.1-6.3-20.6-7.8-31.3l-0.1-0.7H30V26c0.4,3.4,1,6.9,1.7,10.3
		c2.5,12.4,6.9,24.1,14.8,34.1c1.6,2,1.6,2,3.2,0.2c3.9-4.3,7.1-9.1,9.8-14.2c0.3-0.6,0.3-0.9-0.3-1.3c-6.6-3.9-10.1-9.8-11.4-17.2
		c-0.8-4.4-0.7-8.8,0.8-13.1c2.7-7.4,9.2-11,17-10.2c8.7,0.9,12.3,6.8,13,13.7c0.5,4.8-0.2,9.4-1.8,13.9c-0.1,0.3-0.4,1.1-0.4,1.1
		s-0.7,0.1-1.1,0.1c-3.1,0.2-5.9-0.3-8.1-2.6c-0.3-0.3-0.8-0.8-0.8-0.8s0.2-0.7,0.3-1c0.9-3.3,1.5-6.6,0.7-10.1
		c-0.6-2.7-2.1-4-4.4-3.9c-1.5,0.1-2.6,0.9-3.4,2.1c-0.8,1.4-1.1,2.9-1.2,4.4c-0.2,3.9,0.3,7.6,2.4,11c3.5,5.6,8.8,7.4,15.1,6.8
		c1.3-0.1,2.6-0.3,3.8-0.7L79.7,56.7L79.7,56.7L79.7,56.7z"/>
</g>
</svg>
