<?xml version="1.0" encoding="utf-8"?>
<!-- Generator: Adobe Illustrator 19.2.1, SVG Export Plug-In . SVG Version: 6.00 Build 0)  -->
<!DOCTYPE svg PUBLIC "-//W3C//DTD SVG 1.1//EN" "http://www.w3.org/Graphics/SVG/1.1/DTD/svg11.dtd">
<svg version="1.1" id="Capa_1" xmlns="http://www.w3.org/2000/svg" xmlns:xlink="http://www.w3.org/1999/xlink" x="0px" y="0px"
	 viewBox="0 0 512 512" style="enable-background:new 0 0 512 512;" xml:space="preserve">
<g>
	<path d="M256,0C114.6,0,0,114.6,0,256s114.6,256,256,256s256-114.6,256-256S397.4,0,256,0z M172.7,320.2h-46.3
		c-2.8,0-4.9-1.2-6-3.1c-1.2-2-1.3-4.5,0-7.1l49.2-86.5c0.1-0.1,0.1-0.2,0-0.3l-31.3-54c-1.3-2.6-1.5-5.1-0.3-7.1
		c1.2-1.9,3.5-2.9,6.3-2.9h46.3c7.1,0,10.6,4.6,12.9,8.7c0,0,31.6,55,31.8,55.3c-1.9,3.3-49.9,88.1-49.9,88.1
		C183,315.5,179.7,320.2,172.7,320.2z M391.5,106.1L289.1,286.7c-0.1,0.1-0.1,0.2,0,0.3l65.2,118.9c1.3,2.6,1.3,5.2,0.1,7.1
		c-1.2,1.9-3.4,2.9-6.1,2.9h-46.2c-7.1,0-10.6-4.7-12.9-8.8c0,0-65.6-120-65.7-120.3c3.3-5.8,103-182.1,103-182.1
		c2.5-4.4,5.5-8.8,12.4-8.8h46.7c2.8,0,5,1,6.2,2.9C392.8,100.9,392.8,103.5,391.5,106.1z"/>
</g>
</svg>
